<svg viewBox="0 0 60 48" fill="currentColor" xmlns="http://www.w3.org/2000/svg">
    <g clip-path="url(#clip0_8_5)">
        <path
            d="M36.825 0.1125C35.2313 -0.346875 33.5719 0.58125 33.1125 2.175L21.1125 44.175C20.6531 45.7688 21.5813 47.4281 23.175 47.8875C24.7688 48.3469 26.4281 47.4188 26.8875 45.825L38.8875 3.825C39.3469 2.23125 38.4188 0.571875 36.825 0.1125ZM44.3813 11.3719C43.2094 12.5438 43.2094 14.4469 44.3813 15.6188L52.7531 24L44.3719 32.3813C43.2 33.5531 43.2 35.4563 44.3719 36.6281C45.5438 37.8 47.4469 37.8 48.6188 36.6281L59.1188 26.1281C60.2906 24.9563 60.2906 23.0531 59.1188 21.8812L48.6188 11.3812C47.4469 10.2094 45.5438 10.2094 44.3719 11.3812L44.3813 11.3719ZM15.6281 11.3719C14.4563 10.2 12.5531 10.2 11.3813 11.3719L0.881256 21.8719C-0.290619 23.0438 -0.290619 24.9469 0.881256 26.1188L11.3813 36.6188C12.5531 37.7906 14.4563 37.7906 15.6281 36.6188C16.8 35.4469 16.8 33.5438 15.6281 32.3719L7.24688 24L15.6281 15.6188C16.8 14.4469 16.8 12.5438 15.6281 11.3719Z"
            fill="currentColor" />
    </g>
    <defs>
        <clipPath id="clip0_8_5">
            <rect width="60" height="48" fill="currentColor" />
        </clipPath>
    </defs>
</svg>
    