<svg viewBox="0 0 14 18" fill="currentColor" xmlns="http://www.w3.org/2000/svg">
    <g clip-path="url(#clip0_20_129)">
        <path
            d="M2.25 16.3125C1.94062 16.3125 1.6875 16.0594 1.6875 15.75V2.25C1.6875 1.94062 1.94062 1.6875 2.25 1.6875H7.875V4.5C7.875 5.12227 8.37773 5.625 9 5.625H11.8125V15.75C11.8125 16.0594 11.5594 16.3125 11.25 16.3125H2.25ZM2.25 0C1.00898 0 0 1.00898 0 2.25V15.75C0 16.991 1.00898 18 2.25 18H11.25C12.491 18 13.5 16.991 13.5 15.75V5.43164C13.5 4.83398 13.2645 4.26094 12.8426 3.83906L9.65742 0.657422C9.23555 0.235547 8.66602 0 8.06836 0H2.25ZM4.21875 9C3.75117 9 3.375 9.37617 3.375 9.84375C3.375 10.3113 3.75117 10.6875 4.21875 10.6875H9.28125C9.74883 10.6875 10.125 10.3113 10.125 9.84375C10.125 9.37617 9.74883 9 9.28125 9H4.21875ZM4.21875 12.375C3.75117 12.375 3.375 12.7512 3.375 13.2188C3.375 13.6863 3.75117 14.0625 4.21875 14.0625H9.28125C9.74883 14.0625 10.125 13.6863 10.125 13.2188C10.125 12.7512 9.74883 12.375 9.28125 12.375H4.21875Z"
            fill="currentColor" />
    </g>
    <defs>
        <clipPath id="clip0_20_129">
            <rect width="13.5" height="18" fill="currentColor" />
        </clipPath>
    </defs>
</svg>
    