<svg viewBox="0 0 41 42" fill="currentColor"
    xmlns="http://www.w3.org/2000/svg">
    <g clip-path="url(#clip0_13_43)">
        <path
            d="M13.6286 32.5992C13.6286 32.7633 13.4397 32.8945 13.2015 32.8945C12.9304 32.9191 12.7414 32.7879 12.7414 32.5992C12.7414 32.4352 12.9304 32.3039 13.1686 32.3039C13.4151 32.2793 13.6286 32.4105 13.6286 32.5992ZM11.0738 32.2301C11.0163 32.3941 11.1806 32.5828 11.427 32.632C11.6406 32.7141 11.8871 32.632 11.9364 32.468C11.9856 32.3039 11.8296 32.1152 11.5831 32.0414C11.3695 31.984 11.1313 32.066 11.0738 32.2301ZM14.7048 32.0906C14.4666 32.148 14.3023 32.3039 14.3269 32.4926C14.3516 32.6566 14.5651 32.7633 14.8116 32.7059C15.0498 32.6484 15.2141 32.4926 15.1895 32.3285C15.1648 32.1727 14.943 32.066 14.7048 32.0906ZM20.1103 0.65625C8.71609 0.65625 0 9.29414 0 20.6719C0 29.7691 5.73405 37.5539 13.9244 40.2938C14.9759 40.4824 15.3456 39.8344 15.3456 39.3012C15.3456 38.7926 15.3209 35.9871 15.3209 34.2645C15.3209 34.2645 9.57044 35.4949 8.36284 31.8199C8.36284 31.8199 7.42634 29.4328 6.07908 28.8176C6.07908 28.8176 4.19785 27.5297 6.21052 27.5543C6.21052 27.5543 8.25605 27.7184 9.3815 29.6707C11.1806 32.8371 14.1955 31.9266 15.3702 31.3852C15.5592 30.0727 16.0931 29.1621 16.6846 28.6207C12.0924 28.1121 7.4592 27.4477 7.4592 19.5562C7.4592 17.3004 8.08353 16.1684 9.39793 14.7246C9.18434 14.1914 8.48607 11.993 9.61152 9.15469C11.3284 8.62148 15.2799 11.3695 15.2799 11.3695C16.9228 10.9102 18.6891 10.6723 20.4389 10.6723C22.1886 10.6723 23.9549 10.9102 25.5979 11.3695C25.5979 11.3695 29.5493 8.61328 31.2662 9.15469C32.3916 12.0012 31.6934 14.1914 31.4798 14.7246C32.7942 16.1766 33.5992 17.3086 33.5992 19.5562C33.5992 27.4723 28.7606 28.1039 24.1685 28.6207C24.9242 29.2687 25.565 30.4992 25.565 32.427C25.565 35.1914 25.5404 38.6121 25.5404 39.2848C25.5404 39.818 25.9182 40.466 26.9615 40.2773C35.1765 37.5539 40.7463 29.7691 40.7463 20.6719C40.7463 9.29414 31.5044 0.65625 20.1103 0.65625ZM7.98495 28.9488C7.87816 29.0309 7.9028 29.2195 8.04246 29.3754C8.1739 29.5066 8.36284 29.5641 8.46964 29.4574C8.57643 29.3754 8.55179 29.1867 8.41213 29.0309C8.28069 28.8996 8.09175 28.8422 7.98495 28.9488ZM7.09774 28.2844C7.04023 28.391 7.12238 28.5223 7.28668 28.6043C7.41812 28.6863 7.58242 28.6617 7.63993 28.5469C7.69743 28.4402 7.61528 28.309 7.45098 28.227C7.28668 28.1777 7.15524 28.2023 7.09774 28.2844ZM9.75939 31.2047C9.62795 31.3113 9.67724 31.5574 9.86618 31.7133C10.0551 31.902 10.2934 31.9266 10.4002 31.7953C10.507 31.6887 10.4577 31.4426 10.2934 31.2867C10.1126 31.098 9.86618 31.0734 9.75939 31.2047ZM8.82288 29.9988C8.69144 30.0809 8.69144 30.2941 8.82288 30.4828C8.95432 30.6715 9.17613 30.7535 9.28292 30.6715C9.41436 30.5648 9.41436 30.3516 9.28292 30.1629C9.16791 29.9742 8.95432 29.8922 8.82288 29.9988Z"
            fill="currentColor" />
    </g>
    <defs>
        <clipPath id="clip0_13_43">
            <rect width="40.7463" height="42" fill="currentColor" />
        </clipPath>
    </defs>
</svg>
    