<svg viewBox="0 0 54 48" fill="currentColor" xmlns="http://www.w3.org/2000/svg">
    <g clip-path="url(#clip0_27_58)">
        <path
            d="M53.7997 23.9531C53.7997 25.6406 52.3982 26.9625 50.8098 26.9625H47.8199L47.8853 41.9812C47.8853 42.2344 47.8667 42.4875 47.8386 42.7406V44.2594C47.8386 46.3313 46.1661 48.0094 44.1012 48.0094H42.6063C42.5035 48.0094 42.4007 48.0094 42.298 48C42.1672 48.0094 42.0363 48.0094 41.9055 48.0094L38.8689 48H36.6265C34.5616 48 32.8891 46.3219 32.8891 44.25V42V36C32.8891 34.3406 31.553 33 29.8992 33H23.9194C22.2656 33 20.9295 34.3406 20.9295 36V42V44.25C20.9295 46.3219 19.2571 48 17.1922 48H14.9497H11.9692C11.829 48 11.6889 47.9906 11.5487 47.9812C11.4366 47.9906 11.3245 48 11.2124 48H9.71741C7.65251 48 5.98004 46.3219 5.98004 44.25V33.75C5.98004 33.6656 5.98004 33.5719 5.98938 33.4875V26.9531H2.99948C1.31766 26.9531 0.00958252 25.6406 0.00958252 23.9437C0.00958252 23.1 0.289886 22.35 0.943926 21.6937L24.8911 0.75C25.5452 0.09375 26.2927 0 26.9467 0C27.6007 0 28.3482 0.1875 28.9088 0.65625L52.772 21.7031C53.5194 22.3594 53.8932 23.1094 53.7997 23.9531Z"
            fill="currentColor" />
    </g>
    <defs>
        <clipPath id="clip0_27_58">
            <rect width="53.8182" height="48" fill="currentColor" />
        </clipPath>
    </defs>
</svg>
    